<?xml version="1.0" encoding="UTF-8"?>
<svg xmlns="http://www.w3.org/2000/svg" xmlns:xlink="http://www.w3.org/1999/xlink" width="200px" height="76px" viewBox="0 0 199 76" version="1.1">
<g id="surface1">
<path style=" stroke:none;fill-rule:nonzero;fill:rgb(0%,14.901961%,39.215686%);fill-opacity:1;" d="M 0 0 L 3.8125 0 L 3.8125 25.332031 L 0 25.332031 Z M 0 0 "/>
<path style=" stroke:none;fill-rule:nonzero;fill:rgb(100%,80%,20%);fill-opacity:1;" d="M 0 25.332031 L 3.8125 25.332031 L 3.8125 50.667969 L 0 50.667969 Z M 0 25.332031 "/>
<path style=" stroke:none;fill-rule:nonzero;fill:rgb(0%,14.901961%,39.215686%);fill-opacity:1;" d="M 0 50.667969 L 3.8125 50.667969 L 3.8125 76 L 0 76 Z M 0 50.667969 "/>
<path style=" stroke:none;fill-rule:nonzero;fill:rgb(4.313725%,27.843137%,60.392157%);fill-opacity:1;" d="M 14.785156 33.96875 L 14.785156 41.480469 L 16.105469 41.480469 C 17.074219 41.480469 17.738281 41.335938 18.097656 41.046875 C 18.453125 40.757812 18.644531 40.21875 18.660156 39.425781 C 19.179688 39.246094 19.800781 39.15625 20.519531 39.15625 C 20.464844 40.039062 20.4375 41.054688 20.4375 42.207031 C 20.4375 43.488281 20.464844 44.550781 20.519531 45.398438 C 19.765625 45.398438 19.164062 45.324219 18.714844 45.179688 C 18.644531 44.351562 18.429688 43.792969 18.070312 43.507812 C 17.710938 43.21875 17.054688 43.074219 16.105469 43.074219 L 14.785156 43.074219 L 14.785156 45.992188 C 14.785156 46.765625 14.867188 47.371094 15.027344 47.800781 C 15.207031 48.234375 15.484375 48.550781 15.863281 48.746094 C 16.238281 48.929688 16.769531 49.046875 17.449219 49.097656 C 17.574219 49.441406 17.640625 49.992188 17.640625 50.746094 C 16.722656 50.695312 15.296875 50.667969 13.359375 50.667969 C 11.277344 50.667969 9.746094 50.695312 8.757812 50.746094 C 8.757812 50.046875 8.8125 49.496094 8.917969 49.097656 C 9.421875 49.0625 9.800781 48.972656 10.050781 48.828125 C 10.300781 48.667969 10.480469 48.40625 10.589844 48.046875 C 10.695312 47.683594 10.75 47.136719 10.75 46.398438 L 10.75 36.640625 C 10.75 35.902344 10.695312 35.363281 10.589844 35.019531 C 10.5 34.660156 10.328125 34.410156 10.078125 34.265625 C 9.84375 34.121094 9.476562 34.019531 8.972656 33.96875 C 8.828125 33.535156 8.757812 32.984375 8.757812 32.320312 C 10.175781 32.371094 12.167969 32.398438 14.730469 32.398438 C 18.5 32.398438 21.003906 32.371094 22.238281 32.320312 C 22.277344 33.074219 22.339844 33.886719 22.429688 34.75 C 22.535156 35.597656 22.660156 36.300781 22.804688 36.859375 C 22.265625 37.144531 21.601562 37.289062 20.8125 37.289062 C 20.652344 36.226562 20.285156 35.40625 19.710938 34.832031 C 19.136719 34.253906 18.148438 33.964844 16.75 33.964844 Z M 29.75 50.910156 C 27.632812 50.910156 25.992188 50.351562 24.824219 49.234375 C 23.660156 48.101562 23.074219 46.558594 23.074219 44.613281 C 23.074219 43.261719 23.363281 42.09375 23.9375 41.101562 C 24.527344 40.109375 25.335938 39.355469 26.359375 38.832031 C 27.398438 38.308594 28.566406 38.046875 29.855469 38.046875 C 32.011719 38.046875 33.667969 38.625 34.835938 39.777344 C 36 40.929688 36.585938 42.460938 36.585938 44.371094 C 36.585938 45.6875 36.308594 46.839844 35.75 47.828125 C 35.195312 48.800781 34.394531 49.558594 33.355469 50.097656 C 32.332031 50.640625 31.132812 50.910156 29.75 50.910156 Z M 30.097656 49.207031 C 30.90625 49.207031 31.527344 48.820312 31.957031 48.046875 C 32.40625 47.269531 32.628906 46.253906 32.628906 44.992188 C 32.628906 43.894531 32.484375 42.949219 32.199219 42.15625 C 31.929688 41.34375 31.550781 40.730469 31.066406 40.316406 C 30.601562 39.902344 30.089844 39.695312 29.535156 39.695312 C 28.707031 39.695312 28.082031 40.074219 27.652344 40.832031 C 27.238281 41.585938 27.03125 42.578125 27.03125 43.804688 C 27.03125 45.425781 27.300781 46.730469 27.839844 47.722656 C 28.394531 48.710938 29.148438 49.207031 30.097656 49.207031 Z M 30.097656 49.207031 "/>
<path style=" stroke:none;fill-rule:nonzero;fill:rgb(4.313725%,27.843137%,60.392157%);fill-opacity:1;" d="M 49.675781 38.886719 C 49.585938 39.441406 49.523438 40.101562 49.484375 40.859375 C 49.449219 41.597656 49.441406 42.246094 49.457031 42.804688 C 49.207031 42.910156 48.867188 42.992188 48.4375 43.046875 C 48.003906 43.101562 47.601562 43.128906 47.226562 43.128906 C 47.207031 42.425781 47.097656 41.929688 46.902344 41.640625 C 46.703125 41.351562 46.425781 41.207031 46.066406 41.207031 C 45.78125 41.207031 45.484375 41.371094 45.179688 41.695312 C 44.894531 42.019531 44.640625 42.441406 44.425781 42.964844 C 44.230469 43.46875 44.128906 44.011719 44.128906 44.585938 L 44.128906 45.992188 C 44.128906 46.765625 44.210938 47.371094 44.371094 47.800781 C 44.550781 48.234375 44.832031 48.550781 45.207031 48.746094 C 45.582031 48.929688 46.113281 49.046875 46.792969 49.097656 C 46.921875 49.441406 46.984375 49.992188 46.984375 50.746094 C 46.050781 50.691406 44.667969 50.667969 42.839844 50.667969 C 40.792969 50.667969 39.277344 50.691406 38.289062 50.746094 C 38.289062 50.042969 38.34375 49.496094 38.453125 49.097656 C 38.953125 49.0625 39.332031 48.972656 39.582031 48.828125 C 39.832031 48.667969 40.011719 48.40625 40.121094 48.042969 C 40.226562 47.683594 40.28125 47.136719 40.28125 46.394531 L 40.28125 42.667969 C 40.28125 42.109375 40.238281 41.683594 40.148438 41.398438 C 40.058594 41.109375 39.878906 40.894531 39.609375 40.75 C 39.339844 40.605469 38.910156 40.515625 38.316406 40.476562 C 38.316406 39.8125 38.425781 39.296875 38.640625 38.9375 C 39.554688 38.917969 40.460938 38.828125 41.359375 38.667969 C 42.253906 38.488281 42.917969 38.28125 43.347656 38.046875 C 43.871094 38.246094 44.128906 38.730469 44.128906 39.503906 C 44.128906 39.867188 44.085938 40.269531 43.996094 40.722656 C 43.921875 41.152344 43.824219 41.613281 43.699219 42.097656 C 43.984375 41.253906 44.210938 40.695312 44.371094 40.425781 C 44.785156 39.757812 45.277344 39.226562 45.851562 38.828125 C 46.445312 38.433594 47.082031 38.234375 47.761719 38.234375 C 48.480469 38.234375 49.117188 38.453125 49.671875 38.882812 Z M 49.675781 38.886719 "/>
<path style=" stroke:none;fill-rule:nonzero;fill:rgb(4.313725%,27.843137%,60.392157%);fill-opacity:1;" d="M 62.148438 47.613281 C 62.328125 47.703125 62.480469 47.882812 62.605469 48.152344 C 62.734375 48.421875 62.804688 48.695312 62.824219 48.964844 C 61.511719 50.261719 59.761719 50.910156 57.574219 50.910156 C 55.40625 50.910156 53.78125 50.324219 52.703125 49.152344 C 51.628906 47.984375 51.089844 46.453125 51.089844 44.558594 C 51.089844 43.300781 51.339844 42.171875 51.84375 41.183594 C 52.363281 40.191406 53.089844 39.425781 54.023438 38.886719 C 54.957031 38.328125 56.050781 38.046875 57.304688 38.046875 C 59.152344 38.046875 60.535156 38.570312 61.449219 39.613281 C 62.367188 40.640625 62.867188 42.039062 62.957031 43.804688 C 62.8125 44.378906 62.589844 44.804688 62.285156 45.074219 C 59.539062 45.074219 57.136719 45.128906 55.074219 45.234375 C 55.234375 46.371094 55.609375 47.261719 56.203125 47.910156 C 56.792969 48.558594 57.648438 48.882812 58.757812 48.882812 C 59.386719 48.882812 60.007812 48.777344 60.617188 48.558594 C 61.226562 48.324219 61.738281 48.011719 62.148438 47.613281 Z M 57.253906 39.722656 C 56.605469 39.722656 56.078125 40.039062 55.664062 40.667969 C 55.25 41.296875 55.027344 42.246094 54.992188 43.503906 L 59.296875 43.503906 C 59.296875 42.296875 59.117188 41.371094 58.757812 40.722656 C 58.417969 40.054688 57.914062 39.722656 57.253906 39.722656 Z M 57.253906 39.722656 "/>
<path style=" stroke:none;fill-rule:nonzero;fill:rgb(4.313725%,27.843137%,60.392157%);fill-opacity:1;" d="M 68.414062 35.914062 C 67.765625 35.914062 67.238281 35.742188 66.824219 35.398438 C 66.429688 35.039062 66.234375 34.578125 66.234375 34.019531 C 66.234375 33.390625 66.449219 32.894531 66.878906 32.535156 C 67.308594 32.15625 67.855469 31.96875 68.519531 31.96875 C 69.238281 31.96875 69.792969 32.148438 70.1875 32.507812 C 70.601562 32.867188 70.808594 33.363281 70.808594 33.992188 C 70.808594 34.550781 70.582031 35.011719 70.132812 35.371094 C 69.703125 35.730469 69.128906 35.910156 68.414062 35.910156 Z M 64.832031 50.746094 C 64.832031 50.046875 64.894531 49.496094 65.023438 49.097656 C 65.738281 49.0625 66.214844 48.890625 66.449219 48.585938 C 66.699219 48.261719 66.824219 47.648438 66.824219 46.746094 L 66.824219 42.398438 C 66.824219 41.714844 66.699219 41.234375 66.449219 40.964844 C 66.195312 40.675781 65.660156 40.515625 64.832031 40.480469 C 64.832031 39.832031 64.933594 39.316406 65.128906 38.9375 C 65.992188 38.9375 66.898438 38.847656 67.847656 38.667969 C 68.816406 38.46875 69.496094 38.261719 69.890625 38.046875 C 70.414062 38.261719 70.671875 38.742188 70.671875 39.480469 L 70.671875 46.746094 C 70.671875 47.648438 70.789062 48.261719 71.023438 48.585938 C 71.253906 48.890625 71.695312 49.0625 72.339844 49.097656 C 72.464844 49.496094 72.53125 50.042969 72.53125 50.746094 C 71.722656 50.691406 70.449219 50.667969 68.707031 50.667969 C 66.914062 50.667969 65.621094 50.691406 64.832031 50.746094 Z M 64.832031 50.746094 "/>
<path style=" stroke:none;fill-rule:nonzero;fill:rgb(4.313725%,27.843137%,60.392157%);fill-opacity:1;" d="M 82.125 48.53125 C 83.847656 48.550781 85.121094 48.785156 85.945312 49.234375 C 86.789062 49.683594 87.210938 50.53125 87.210938 51.773438 C 87.210938 52.785156 86.878906 53.710938 86.214844 54.558594 C 85.566406 55.421875 84.652344 56.105469 83.46875 56.609375 C 82.285156 57.132812 80.921875 57.394531 79.378906 57.394531 C 77.546875 57.394531 76.230469 57.097656 75.421875 56.503906 C 74.632812 55.925781 74.238281 55.105469 74.238281 54.042969 C 74.238281 53.414062 74.398438 52.863281 74.722656 52.394531 C 75.0625 51.925781 75.546875 51.558594 76.175781 51.289062 C 75.40625 50.835938 75.019531 50.109375 75.019531 49.097656 C 75.019531 47.945312 75.546875 46.9375 76.605469 46.074219 C 75.28125 45.296875 74.617188 44.109375 74.617188 42.503906 C 74.617188 41.117188 75.089844 40.027344 76.042969 39.234375 C 77.011719 38.445312 78.355469 38.046875 80.078125 38.046875 C 80.847656 38.046875 81.550781 38.128906 82.175781 38.289062 L 87.210938 38.289062 C 87.390625 38.742188 87.476562 39.433594 87.476562 40.371094 C 86.671875 40.082031 85.828125 39.910156 84.949219 39.859375 C 85.324219 40.273438 85.613281 40.722656 85.808594 41.207031 C 86.007812 41.675781 86.105469 42.144531 86.105469 42.613281 C 86.105469 43.875 85.605469 44.902344 84.597656 45.695312 C 83.59375 46.488281 82.160156 46.882812 80.292969 46.882812 C 79.613281 46.882812 78.984375 46.828125 78.410156 46.722656 C 78.070312 47.007812 77.898438 47.289062 77.898438 47.558594 C 77.898438 47.863281 78.042969 48.089844 78.328125 48.234375 C 78.632812 48.359375 79.039062 48.441406 79.539062 48.476562 C 80.042969 48.496094 80.902344 48.515625 82.125 48.53125 Z M 80.1875 39.480469 C 79.613281 39.480469 79.171875 39.722656 78.867188 40.210938 C 78.582031 40.675781 78.4375 41.316406 78.4375 42.128906 C 78.4375 43.15625 78.625 43.9375 79.003906 44.476562 C 79.398438 45.019531 79.945312 45.289062 80.644531 45.289062 C 81.183594 45.289062 81.59375 45.074219 81.882812 44.640625 C 82.1875 44.191406 82.339844 43.53125 82.339844 42.667969 C 82.339844 41.695312 82.152344 40.921875 81.773438 40.34375 C 81.398438 39.765625 80.867188 39.480469 80.1875 39.480469 Z M 80.238281 55.613281 C 81.335938 55.613281 82.203125 55.386719 82.851562 54.9375 C 83.515625 54.503906 83.847656 53.964844 83.847656 53.316406 C 83.847656 52.972656 83.757812 52.710938 83.578125 52.53125 C 83.414062 52.351562 83.101562 52.226562 82.636719 52.152344 C 82.167969 52.082031 81.46875 52.035156 80.535156 52.019531 C 79.585938 52.019531 78.714844 51.964844 77.925781 51.855469 C 77.710938 52.089844 77.558594 52.316406 77.46875 52.53125 C 77.398438 52.746094 77.359375 53.007812 77.359375 53.316406 C 77.359375 54.109375 77.578125 54.683594 78.007812 55.042969 C 78.457031 55.421875 79.199219 55.613281 80.242188 55.613281 Z M 104.832031 49.097656 C 104.972656 49.441406 105.046875 49.992188 105.046875 50.746094 C 103.484375 50.695312 102.375 50.667969 101.710938 50.667969 C 99.96875 50.667969 98.695312 50.695312 97.886719 50.746094 C 97.886719 50.027344 97.949219 49.476562 98.078125 49.097656 C 98.613281 49.097656 99.007812 48.910156 99.261719 48.53125 C 99.511719 48.152344 99.636719 47.503906 99.636719 46.585938 L 99.636719 43.640625 C 99.636719 42.542969 99.457031 41.765625 99.097656 41.316406 C 98.757812 40.847656 98.246094 40.613281 97.566406 40.613281 C 97.097656 40.613281 96.667969 40.785156 96.273438 41.128906 C 95.878906 41.453125 95.554688 41.949219 95.304688 42.613281 C 95.070312 43.261719 94.953125 44.046875 94.953125 44.964844 L 94.953125 46.75 C 94.953125 47.648438 95.070312 48.269531 95.304688 48.613281 C 95.539062 48.9375 95.933594 49.097656 96.488281 49.097656 C 96.632812 49.496094 96.703125 50.046875 96.703125 50.746094 C 95.933594 50.695312 94.710938 50.667969 93.042969 50.667969 C 91.230469 50.667969 89.921875 50.695312 89.113281 50.746094 C 89.113281 49.992188 89.1875 49.441406 89.328125 49.097656 C 90.03125 49.097656 90.496094 48.9375 90.730469 48.613281 C 90.980469 48.289062 91.105469 47.667969 91.105469 46.75 L 91.105469 42.667969 C 91.105469 42.109375 91.0625 41.6875 90.972656 41.398438 C 90.882812 41.109375 90.703125 40.894531 90.433594 40.75 C 90.164062 40.605469 89.734375 40.515625 89.140625 40.480469 C 89.140625 39.8125 89.25 39.300781 89.464844 38.9375 C 90.378906 38.921875 91.285156 38.832031 92.183594 38.667969 C 93.078125 38.488281 93.742188 38.28125 94.171875 38.046875 C 94.695312 38.246094 94.953125 38.730469 94.953125 39.507812 C 94.953125 39.992188 94.863281 40.53125 94.683594 41.128906 C 94.71875 41.035156 94.800781 40.855469 94.925781 40.585938 C 95.070312 40.316406 95.242188 40.074219 95.4375 39.855469 C 95.851562 39.390625 96.378906 38.992188 97.027344 38.667969 C 97.671875 38.34375 98.390625 38.183594 99.179688 38.183594 C 100.417969 38.183594 101.4375 38.542969 102.246094 39.261719 C 103.070312 39.964844 103.484375 41.074219 103.484375 42.585938 L 103.484375 46.746094 C 103.484375 47.628906 103.582031 48.242188 103.78125 48.585938 C 103.976562 48.929688 104.328125 49.097656 104.828125 49.097656 Z M 129.761719 49.097656 C 129.886719 49.53125 129.949219 50.082031 129.949219 50.746094 C 129.125 50.695312 127.894531 50.667969 126.261719 50.667969 C 124.449219 50.667969 123.140625 50.695312 122.335938 50.746094 C 122.335938 50.027344 122.40625 49.476562 122.550781 49.097656 C 122.980469 49.027344 123.292969 48.929688 123.492188 48.800781 C 123.6875 48.65625 123.785156 48.460938 123.785156 48.207031 C 123.785156 47.972656 123.671875 47.578125 123.4375 47.019531 L 122.792969 45.476562 C 120.386719 45.476562 118.179688 45.542969 116.171875 45.667969 L 115.820312 46.613281 C 115.625 47.117188 115.527344 47.53125 115.527344 47.855469 C 115.527344 48.578125 115.957031 48.992188 116.816406 49.097656 C 116.941406 49.496094 117.007812 50.046875 117.007812 50.746094 C 116.394531 50.695312 115.445312 50.667969 114.152344 50.667969 C 113.078125 50.667969 112.269531 50.695312 111.730469 50.746094 C 111.730469 50.082031 111.8125 49.53125 111.972656 49.097656 C 112.421875 49.027344 112.78125 48.8125 113.050781 48.453125 C 113.335938 48.074219 113.695312 47.351562 114.125 46.289062 L 119.75 32.375 C 120 32.320312 120.253906 32.28125 120.503906 32.265625 C 120.753906 32.246094 121.035156 32.238281 121.339844 32.238281 L 127.5 46.15625 C 127.878906 46.984375 128.171875 47.597656 128.386719 47.992188 C 128.621094 48.386719 128.835938 48.667969 129.035156 48.828125 C 129.230469 48.972656 129.472656 49.0625 129.761719 49.101562 Z M 122.144531 43.992188 L 120.640625 40.480469 C 120.082031 39.234375 119.660156 38.09375 119.375 37.046875 C 119.050781 38.128906 118.65625 39.273438 118.191406 40.480469 L 116.84375 43.992188 Z M 152.390625 32.128906 C 152.300781 32.941406 152.257812 33.742188 152.257812 34.535156 C 152.257812 35.019531 152.265625 35.371094 152.285156 35.589844 C 151.996094 35.695312 151.621094 35.777344 151.152344 35.832031 C 150.703125 35.867188 150.273438 35.875 149.863281 35.859375 C 149.863281 35.011719 149.71875 34.34375 149.429688 33.859375 C 149.144531 33.355469 148.730469 33.101562 148.191406 33.101562 C 147.636719 33.101562 147.242188 33.382812 147.007812 33.941406 C 146.777344 34.480469 146.660156 35.417969 146.660156 36.75 L 146.660156 38.5625 L 149.621094 38.5625 C 149.621094 39.390625 149.53125 39.976562 149.351562 40.316406 C 148.382812 40.316406 147.484375 40.433594 146.660156 40.667969 L 146.660156 45.992188 C 146.660156 46.765625 146.738281 47.371094 146.902344 47.800781 C 147.082031 48.234375 147.359375 48.550781 147.734375 48.746094 C 148.128906 48.929688 148.667969 49.046875 149.351562 49.097656 C 149.476562 49.441406 149.539062 49.992188 149.539062 50.746094 C 148.605469 50.691406 147.222656 50.667969 145.394531 50.667969 C 143.332031 50.667969 141.816406 50.691406 140.847656 50.746094 C 140.847656 50.042969 140.898438 49.496094 141.007812 49.097656 C 141.507812 49.0625 141.886719 48.972656 142.136719 48.828125 C 142.386719 48.667969 142.566406 48.40625 142.675781 48.042969 C 142.78125 47.683594 142.835938 47.136719 142.835938 46.394531 L 142.835938 40.53125 C 142.066406 40.335938 141.214844 40.234375 140.28125 40.234375 C 139.617188 40.234375 139.042969 40.269531 138.558594 40.34375 C 138.089844 40.414062 137.625 40.523438 137.160156 40.667969 L 137.160156 45.992188 C 137.160156 46.835938 137.222656 47.476562 137.347656 47.910156 C 137.492188 48.324219 137.707031 48.613281 137.992188 48.773438 C 138.28125 48.9375 138.703125 49.042969 139.257812 49.097656 C 139.402344 49.421875 139.472656 49.972656 139.472656 50.746094 C 138.539062 50.691406 137.246094 50.664062 135.597656 50.664062 C 133.730469 50.664062 132.3125 50.691406 131.34375 50.746094 C 131.34375 49.972656 131.398438 49.421875 131.507812 49.097656 C 132.007812 49.0625 132.386719 48.972656 132.636719 48.828125 C 132.886719 48.664062 133.066406 48.40625 133.175781 48.042969 C 133.28125 47.667969 133.335938 47.117188 133.335938 46.394531 L 133.335938 40.53125 C 132.566406 40.351562 131.867188 40.261719 131.238281 40.261719 C 131.238281 39.523438 131.363281 38.957031 131.613281 38.558594 L 133.335938 38.558594 L 133.335938 37.855469 C 133.335938 36.613281 133.640625 35.53125 134.25 34.613281 C 134.863281 33.695312 135.703125 33 136.78125 32.535156 C 137.875 32.046875 139.105469 31.804688 140.46875 31.804688 C 141.257812 31.804688 142.027344 31.894531 142.78125 32.074219 C 143.554688 32.253906 144.199219 32.507812 144.71875 32.832031 C 145.277344 32.34375 145.921875 31.976562 146.65625 31.722656 C 147.410156 31.453125 148.207031 31.316406 149.050781 31.316406 C 149.734375 31.316406 150.371094 31.398438 150.960938 31.5625 C 151.554688 31.703125 152.03125 31.894531 152.386719 32.128906 Z M 142.839844 37.640625 C 142.839844 36.8125 142.953125 36.019531 143.1875 35.265625 C 142.863281 34.6875 142.441406 34.253906 141.921875 33.96875 C 141.402344 33.679688 140.8125 33.535156 140.148438 33.535156 C 139.140625 33.535156 138.386719 33.796875 137.886719 34.316406 C 137.402344 34.839844 137.160156 35.75 137.160156 37.046875 L 137.160156 38.558594 L 142.835938 38.558594 Z M 164.476562 48.722656 C 164.476562 49.226562 164.386719 49.65625 164.207031 50.019531 C 162.753906 50.074219 161.445312 50.371094 160.277344 50.910156 C 159.992188 50.785156 159.777344 50.605469 159.632812 50.371094 C 159.507812 50.117188 159.445312 49.773438 159.445312 49.34375 C 159.445312 49 159.480469 48.65625 159.550781 48.316406 C 159.28125 48.964844 158.898438 49.488281 158.394531 49.882812 C 157.640625 50.53125 156.601562 50.855469 155.273438 50.855469 C 154.070312 50.855469 153.136719 50.59375 152.472656 50.074219 C 151.808594 49.550781 151.476562 48.800781 151.476562 47.828125 C 151.476562 46.765625 151.855469 45.921875 152.609375 45.289062 C 153.378906 44.640625 154.292969 44.171875 155.351562 43.882812 C 156.410156 43.578125 157.632812 43.324219 159.011719 43.128906 C 159.011719 42.316406 158.96875 41.714844 158.878906 41.316406 C 158.808594 40.902344 158.65625 40.558594 158.421875 40.289062 C 158.042969 39.839844 157.542969 39.613281 156.914062 39.613281 C 156.234375 39.613281 155.722656 39.902344 155.378906 40.480469 C 155.058594 41.054688 154.859375 41.777344 154.789062 42.640625 C 153.785156 42.640625 153.046875 42.550781 152.582031 42.371094 C 152.617188 41.9375 152.636719 41.597656 152.636719 41.34375 C 152.636719 40.640625 152.5625 39.902344 152.421875 39.128906 C 153.171875 38.785156 154.035156 38.515625 155.003906 38.316406 C 155.972656 38.117188 156.894531 38.019531 157.773438 38.019531 C 159.53125 38.019531 160.832031 38.425781 161.675781 39.234375 C 162.070312 39.652344 162.367188 40.207031 162.566406 40.910156 C 162.761719 41.597656 162.859375 42.542969 162.859375 43.75 L 162.859375 46.097656 C 162.859375 46.710938 162.898438 47.171875 162.96875 47.476562 C 163.039062 47.765625 163.183594 47.972656 163.398438 48.097656 C 163.632812 48.226562 163.980469 48.296875 164.449219 48.316406 Z M 159.011719 44.558594 C 157.792969 44.777344 156.871094 45.0625 156.242188 45.425781 C 155.632812 45.785156 155.328125 46.34375 155.328125 47.101562 C 155.328125 47.605469 155.441406 47.980469 155.675781 48.234375 C 155.925781 48.488281 156.242188 48.613281 156.617188 48.613281 C 157.011719 48.613281 157.390625 48.488281 157.75 48.234375 C 158.125 47.980469 158.429688 47.613281 158.664062 47.125 C 158.894531 46.621094 159.011719 46.007812 159.011719 45.289062 Z M 159.011719 44.558594 "/>
<path style=" stroke:none;fill-rule:nonzero;fill:rgb(4.313725%,27.843137%,60.392157%);fill-opacity:1;" d="M 169.691406 35.914062 C 169.046875 35.914062 168.519531 35.742188 168.105469 35.398438 C 167.710938 35.039062 167.511719 34.578125 167.511719 34.019531 C 167.511719 33.390625 167.730469 32.894531 168.160156 32.535156 C 168.589844 32.15625 169.136719 31.96875 169.800781 31.96875 C 170.519531 31.96875 171.074219 32.148438 171.46875 32.507812 C 171.882812 32.867188 172.089844 33.363281 172.089844 33.992188 C 172.089844 34.550781 171.863281 35.011719 171.414062 35.371094 C 170.984375 35.730469 170.410156 35.910156 169.691406 35.910156 Z M 166.113281 50.746094 C 166.113281 50.046875 166.175781 49.496094 166.300781 49.097656 C 167.019531 49.0625 167.496094 48.890625 167.730469 48.585938 C 167.980469 48.261719 168.105469 47.648438 168.105469 46.746094 L 168.105469 42.398438 C 168.105469 41.714844 167.980469 41.234375 167.730469 40.964844 C 167.476562 40.675781 166.9375 40.515625 166.113281 40.480469 C 166.113281 39.832031 166.210938 39.316406 166.410156 38.9375 C 167.269531 38.9375 168.175781 38.847656 169.128906 38.667969 C 170.097656 38.46875 170.777344 38.261719 171.171875 38.046875 C 171.691406 38.261719 171.953125 38.742188 171.953125 39.480469 L 171.953125 46.746094 C 171.953125 47.648438 172.070312 48.261719 172.304688 48.585938 C 172.535156 48.890625 172.976562 49.0625 173.621094 49.097656 C 173.746094 49.496094 173.808594 50.042969 173.808594 50.746094 C 173.003906 50.691406 171.730469 50.667969 169.988281 50.667969 C 168.195312 50.667969 166.902344 50.691406 166.113281 50.746094 Z M 166.113281 50.746094 "/>
<path style=" stroke:none;fill-rule:nonzero;fill:rgb(4.313725%,27.843137%,60.392157%);fill-opacity:1;" d="M 187.011719 38.886719 C 186.921875 39.441406 186.859375 40.101562 186.820312 40.859375 C 186.785156 41.597656 186.777344 42.246094 186.796875 42.804688 C 186.542969 42.910156 186.203125 42.992188 185.773438 43.046875 C 185.34375 43.101562 184.9375 43.128906 184.5625 43.128906 C 184.542969 42.425781 184.4375 41.929688 184.238281 41.640625 C 184.042969 41.351562 183.761719 41.207031 183.402344 41.207031 C 183.117188 41.207031 182.820312 41.371094 182.515625 41.695312 C 182.230469 42.019531 181.976562 42.441406 181.761719 42.964844 C 181.566406 43.46875 181.464844 44.011719 181.464844 44.585938 L 181.464844 45.992188 C 181.464844 46.765625 181.546875 47.371094 181.707031 47.800781 C 181.886719 48.234375 182.167969 48.550781 182.542969 48.746094 C 182.917969 48.929688 183.449219 49.046875 184.132812 49.097656 C 184.257812 49.441406 184.320312 49.992188 184.320312 50.746094 C 183.386719 50.691406 182.003906 50.667969 180.175781 50.667969 C 178.128906 50.667969 176.613281 50.691406 175.628906 50.746094 C 175.628906 50.042969 175.679688 49.496094 175.789062 49.097656 C 176.289062 49.0625 176.667969 48.972656 176.917969 48.828125 C 177.167969 48.667969 177.347656 48.40625 177.457031 48.042969 C 177.5625 47.683594 177.617188 47.136719 177.617188 46.394531 L 177.617188 42.667969 C 177.617188 42.109375 177.574219 41.683594 177.484375 41.398438 C 177.394531 41.109375 177.214844 40.894531 176.945312 40.75 C 176.675781 40.605469 176.246094 40.515625 175.652344 40.476562 C 175.652344 39.8125 175.761719 39.296875 175.976562 38.9375 C 176.890625 38.917969 177.796875 38.828125 178.695312 38.667969 C 179.589844 38.488281 180.253906 38.28125 180.6875 38.046875 C 181.207031 38.246094 181.464844 38.730469 181.464844 39.503906 C 181.464844 39.867188 181.421875 40.269531 181.332031 40.722656 C 181.257812 41.152344 181.160156 41.613281 181.035156 42.097656 C 181.324219 41.253906 181.546875 40.695312 181.707031 40.425781 C 182.121094 39.757812 182.613281 39.226562 183.1875 38.828125 C 183.78125 38.433594 184.417969 38.234375 185.097656 38.234375 C 185.816406 38.234375 186.453125 38.453125 187.007812 38.882812 Z M 187.011719 38.886719 "/>
<path style=" stroke:none;fill-rule:nonzero;fill:rgb(4.313725%,27.843137%,60.392157%);fill-opacity:1;" d="M 198.058594 41.777344 C 197.808594 41.921875 197.503906 42.039062 197.144531 42.128906 C 196.785156 42.21875 196.410156 42.261719 196.015625 42.261719 C 195.941406 41.523438 195.683594 40.910156 195.234375 40.425781 C 194.785156 39.921875 194.183594 39.667969 193.429688 39.667969 C 193.019531 39.667969 192.6875 39.777344 192.433594 39.992188 C 192.183594 40.191406 192.058594 40.46875 192.058594 40.832031 C 192.058594 41.117188 192.121094 41.363281 192.246094 41.558594 C 192.390625 41.757812 192.667969 41.984375 193.082031 42.234375 C 193.492188 42.46875 194.128906 42.757812 194.992188 43.101562 C 196.03125 43.515625 196.832031 43.910156 197.386719 44.289062 C 197.960938 44.648438 198.363281 45.054688 198.597656 45.503906 C 198.847656 45.9375 198.972656 46.460938 198.972656 47.074219 C 198.972656 48.28125 198.472656 49.226562 197.46875 49.910156 C 196.460938 50.578125 195.089844 50.910156 193.351562 50.910156 C 192.292969 50.910156 191.402344 50.828125 190.6875 50.667969 C 189.96875 50.523438 189.242188 50.289062 188.507812 49.964844 C 188.578125 49.511719 188.613281 48.9375 188.613281 48.234375 C 188.613281 47.585938 188.585938 47.046875 188.53125 46.613281 C 188.765625 46.46875 189.078125 46.359375 189.476562 46.289062 C 189.871094 46.199219 190.253906 46.152344 190.632812 46.152344 C 190.738281 47.144531 191.027344 47.902344 191.492188 48.421875 C 191.976562 48.929688 192.585938 49.179688 193.324219 49.179688 C 193.863281 49.179688 194.292969 49.0625 194.613281 48.828125 C 194.9375 48.578125 195.097656 48.242188 195.097656 47.828125 C 195.097656 47.398438 194.929688 47.046875 194.585938 46.773438 C 194.246094 46.488281 193.554688 46.125 192.515625 45.695312 C 191.582031 45.335938 190.839844 44.992188 190.28125 44.667969 C 189.742188 44.324219 189.332031 43.910156 189.042969 43.425781 C 188.757812 42.917969 188.613281 42.289062 188.613281 41.53125 C 188.613281 40.398438 189.097656 39.535156 190.066406 38.9375 C 191.035156 38.34375 192.226562 38.046875 193.644531 38.046875 C 194.578125 38.046875 195.375 38.121094 196.039062 38.261719 C 196.703125 38.390625 197.339844 38.605469 197.949219 38.910156 C 197.933594 39.109375 197.925781 39.40625 197.925781 39.804688 C 197.925781 40.398438 197.96875 41.054688 198.058594 41.777344 Z M 198.058594 41.777344 "/>
<path style=" stroke:none;fill-rule:nonzero;fill:rgb(9.019608%,56.470588%,94.509804%);fill-opacity:1;" d="M 8.671875 69.804688 L 8.671875 57.578125 L 16.5 57.578125 L 16.5 59.671875 L 10.96875 59.671875 L 10.96875 62.589844 L 16.011719 62.589844 L 16.011719 64.6875 L 10.96875 64.6875 L 10.96875 67.710938 L 16.605469 67.710938 L 16.605469 69.804688 Z M 21.976562 70.050781 C 20.851562 70.050781 19.929688 69.804688 19.210938 69.316406 C 18.492188 68.828125 18.054688 68.128906 17.90625 67.222656 L 19.921875 66.695312 C 20.003906 67.105469 20.136719 67.425781 20.324219 67.65625 C 20.519531 67.890625 20.757812 68.058594 21.035156 68.164062 C 21.328125 68.257812 21.640625 68.304688 21.976562 68.304688 C 22.488281 68.304688 22.863281 68.214844 23.105469 68.042969 C 23.351562 67.855469 23.472656 67.628906 23.472656 67.359375 C 23.472656 67.09375 23.355469 66.890625 23.125 66.75 C 22.890625 66.597656 22.519531 66.476562 22.011719 66.382812 L 21.523438 66.292969 C 20.921875 66.179688 20.371094 66.019531 19.871094 65.824219 C 19.371094 65.613281 18.972656 65.328125 18.671875 64.96875 C 18.367188 64.605469 18.21875 64.140625 18.21875 63.570312 C 18.21875 62.707031 18.53125 62.050781 19.15625 61.59375 C 19.785156 61.128906 20.605469 60.894531 21.628906 60.894531 C 22.589844 60.894531 23.390625 61.113281 24.027344 61.542969 C 24.667969 61.972656 25.085938 62.539062 25.28125 63.238281 L 23.246094 63.867188 C 23.152344 63.421875 22.960938 63.109375 22.671875 62.921875 C 22.394531 62.738281 22.046875 62.644531 21.628906 62.644531 C 21.210938 62.644531 20.890625 62.71875 20.671875 62.871094 C 20.449219 63.011719 20.339844 63.207031 20.339844 63.464844 C 20.339844 63.742188 20.457031 63.953125 20.6875 64.09375 C 20.921875 64.222656 21.234375 64.320312 21.628906 64.390625 L 22.113281 64.476562 C 22.765625 64.59375 23.351562 64.75 23.871094 64.949219 C 24.40625 65.136719 24.824219 65.410156 25.125 65.769531 C 25.4375 66.121094 25.59375 66.597656 25.59375 67.203125 C 25.59375 68.113281 25.261719 68.816406 24.601562 69.316406 C 23.953125 69.808594 23.078125 70.050781 21.976562 70.050781 Z M 28.722656 69.804688 L 28.722656 62.957031 L 26.53125 62.957031 L 26.53125 61.140625 L 28.722656 61.140625 L 28.722656 59.535156 C 28.722656 58.9375 28.894531 58.46875 29.242188 58.117188 C 29.605469 57.757812 30.066406 57.578125 30.636719 57.578125 L 32.898438 57.578125 L 32.898438 59.394531 L 31.402344 59.394531 C 31.078125 59.394531 30.914062 59.570312 30.914062 59.917969 L 30.914062 61.140625 L 33.175781 61.140625 L 33.175781 62.957031 L 30.914062 62.957031 L 30.914062 69.804688 Z M 28.722656 69.804688 "/>
<path style=" stroke:none;fill-rule:nonzero;fill:rgb(9.019608%,56.470588%,94.509804%);fill-opacity:1;" d="M 37.382812 70.050781 C 36.769531 70.050781 36.214844 69.945312 35.730469 69.738281 C 35.242188 69.515625 34.855469 69.199219 34.5625 68.792969 C 34.285156 68.375 34.144531 67.867188 34.144531 67.273438 C 34.144531 66.679688 34.285156 66.183594 34.5625 65.789062 C 34.855469 65.378906 35.25 65.078125 35.746094 64.878906 C 36.257812 64.671875 36.835938 64.566406 37.488281 64.566406 L 39.851562 64.566406 L 39.851562 64.074219 C 39.851562 63.667969 39.726562 63.335938 39.46875 63.082031 C 39.214844 62.8125 38.808594 62.679688 38.253906 62.679688 C 37.707031 62.679688 37.300781 62.808594 37.035156 63.0625 C 36.769531 63.308594 36.59375 63.628906 36.511719 64.023438 L 34.492188 63.34375 C 34.632812 62.898438 34.851562 62.5 35.15625 62.136719 C 35.46875 61.765625 35.878906 61.46875 36.390625 61.246094 C 36.914062 61.011719 37.542969 60.898438 38.285156 60.898438 C 39.421875 60.898438 40.324219 61.183594 40.984375 61.753906 C 41.644531 62.324219 41.976562 63.148438 41.976562 64.234375 L 41.976562 67.464844 C 41.976562 67.816406 42.136719 67.988281 42.460938 67.988281 L 43.160156 67.988281 L 43.160156 69.808594 L 41.695312 69.808594 C 41.269531 69.808594 40.914062 69.703125 40.636719 69.492188 C 40.355469 69.28125 40.21875 69.003906 40.21875 68.652344 L 40.21875 68.636719 L 39.886719 68.636719 C 39.839844 68.777344 39.738281 68.960938 39.574219 69.195312 C 39.410156 69.417969 39.15625 69.613281 38.808594 69.789062 C 38.460938 69.964844 37.984375 70.050781 37.382812 70.050781 Z M 37.765625 68.269531 C 38.378906 68.269531 38.878906 68.101562 39.261719 67.761719 C 39.65625 67.414062 39.851562 66.953125 39.851562 66.382812 L 39.851562 66.207031 L 37.644531 66.207031 C 37.238281 66.207031 36.917969 66.292969 36.6875 66.46875 C 36.453125 66.644531 36.339844 66.890625 36.339844 67.203125 C 36.339844 67.519531 36.460938 67.773438 36.703125 67.972656 C 36.949219 68.167969 37.300781 68.269531 37.765625 68.269531 Z M 37.765625 68.269531 "/>
<path style=" stroke:none;fill-rule:nonzero;fill:rgb(9.019608%,56.470588%,94.509804%);fill-opacity:1;" d="M 44.761719 69.804688 L 44.761719 57.578125 L 46.953125 57.578125 L 46.953125 69.804688 Z M 52.96875 70.050781 C 51.84375 70.050781 50.921875 69.804688 50.203125 69.316406 C 49.480469 68.828125 49.046875 68.128906 48.898438 67.222656 L 50.914062 66.695312 C 50.996094 67.105469 51.128906 67.425781 51.316406 67.65625 C 51.511719 67.890625 51.75 68.058594 52.027344 68.164062 C 52.316406 68.257812 52.632812 68.304688 52.96875 68.304688 C 53.476562 68.304688 53.855469 68.214844 54.097656 68.042969 C 54.34375 67.855469 54.464844 67.628906 54.464844 67.359375 C 54.464844 67.09375 54.347656 66.890625 54.117188 66.75 C 53.882812 66.597656 53.511719 66.476562 53.003906 66.382812 L 52.515625 66.292969 C 51.914062 66.179688 51.359375 66.019531 50.863281 65.824219 C 50.363281 65.613281 49.964844 65.328125 49.660156 64.96875 C 49.359375 64.605469 49.210938 64.140625 49.210938 63.570312 C 49.210938 62.707031 49.523438 62.050781 50.148438 61.59375 C 50.773438 61.128906 51.597656 60.894531 52.621094 60.894531 C 53.582031 60.894531 54.382812 61.113281 55.019531 61.542969 C 55.660156 61.972656 56.074219 62.539062 56.273438 63.238281 L 54.238281 63.867188 C 54.144531 63.421875 53.953125 63.109375 53.664062 62.921875 C 53.386719 62.738281 53.039062 62.644531 52.621094 62.644531 C 52.203125 62.644531 51.882812 62.71875 51.664062 62.871094 C 51.441406 63.011719 51.332031 63.207031 51.332031 63.464844 C 51.332031 63.742188 51.449219 63.953125 51.679688 64.09375 C 51.910156 64.222656 52.226562 64.320312 52.621094 64.390625 L 53.105469 64.476562 C 53.757812 64.59375 54.34375 64.75 54.863281 64.949219 C 55.398438 65.136719 55.816406 65.410156 56.117188 65.769531 C 56.429688 66.121094 56.585938 66.597656 56.585938 67.203125 C 56.585938 68.113281 56.253906 68.816406 55.59375 69.316406 C 54.945312 69.808594 54.070312 70.050781 52.96875 70.050781 Z M 52.96875 70.050781 "/>
<path style=" stroke:none;fill-rule:nonzero;fill:rgb(9.019608%,56.470588%,94.509804%);fill-opacity:1;" d="M 61.101562 70.050781 C 60.488281 70.050781 59.9375 69.945312 59.449219 69.738281 C 58.960938 69.515625 58.574219 69.199219 58.285156 68.792969 C 58.003906 68.375 57.867188 67.867188 57.867188 67.273438 C 57.867188 66.679688 58.003906 66.183594 58.285156 65.789062 C 58.574219 65.378906 58.96875 65.078125 59.464844 64.878906 C 59.976562 64.671875 60.558594 64.566406 61.207031 64.566406 L 63.574219 64.566406 L 63.574219 64.074219 C 63.574219 63.667969 63.445312 63.335938 63.191406 63.082031 C 62.933594 62.8125 62.527344 62.679688 61.972656 62.679688 C 61.425781 62.679688 61.019531 62.808594 60.753906 63.0625 C 60.488281 63.308594 60.3125 63.628906 60.230469 64.023438 L 58.214844 63.34375 C 58.351562 62.898438 58.574219 62.5 58.875 62.136719 C 59.1875 61.765625 59.601562 61.46875 60.109375 61.246094 C 60.632812 61.011719 61.265625 60.898438 62.007812 60.898438 C 63.144531 60.898438 64.042969 61.183594 64.703125 61.753906 C 65.363281 62.324219 65.695312 63.148438 65.695312 64.234375 L 65.695312 67.464844 C 65.695312 67.816406 65.855469 67.988281 66.183594 67.988281 L 66.878906 67.988281 L 66.878906 69.808594 L 65.417969 69.808594 C 64.988281 69.808594 64.632812 69.703125 64.355469 69.492188 C 64.078125 69.28125 63.9375 69.003906 63.9375 68.652344 L 63.9375 68.636719 L 63.605469 68.636719 C 63.5625 68.777344 63.457031 68.960938 63.292969 69.195312 C 63.132812 69.417969 62.875 69.613281 62.527344 69.789062 C 62.179688 69.964844 61.703125 70.050781 61.101562 70.050781 Z M 61.484375 68.269531 C 62.101562 68.269531 62.597656 68.101562 62.980469 67.761719 C 63.375 67.414062 63.574219 66.953125 63.574219 66.382812 L 63.574219 66.207031 L 61.363281 66.207031 C 60.957031 66.207031 60.636719 66.292969 60.40625 66.46875 C 60.175781 66.644531 60.058594 66.890625 60.058594 67.203125 C 60.058594 67.519531 60.179688 67.773438 60.425781 67.972656 C 60.667969 68.167969 61.023438 68.269531 61.484375 68.269531 Z M 61.484375 68.269531 "/>
<path style=" stroke:none;fill-rule:nonzero;fill:rgb(100%,80%,20%);fill-opacity:1;" d="M 17.980469 0 L 21.179688 3.988281 L 26.28125 4.015625 L 25.167969 9.011719 L 28.332031 13.035156 L 23.746094 15.277344 L 22.585938 20.265625 L 17.980469 18.066406 L 13.371094 20.265625 L 12.214844 15.277344 L 7.628906 13.035156 L 10.789062 9.011719 L 9.679688 4.015625 L 14.78125 3.988281 Z M 17.980469 0 "/>
</g>
</svg>
