<?xml version="1.0" encoding="UTF-8" standalone="no"?>
<svg
   width="521.69226mm"
   height="198.4375mm"
   viewBox="0 0 521.69227 198.4375"
   version="1.1"
   id="svg8"
   inkscape:version="1.1 (c4e8f9e, 2021-05-24)"
   sodipodi:docname="foreign affairs logo.svg"
   inkscape:export-filename="/Users/DMY/Documents/NationStates/Esfalsa Design Resources/chancellor of esfalsa logo.png"
   inkscape:export-xdpi="196"
   inkscape:export-ydpi="196"
   xmlns:inkscape="http://www.inkscape.org/namespaces/inkscape"
   xmlns:sodipodi="http://sodipodi.sourceforge.net/DTD/sodipodi-0.dtd"
   xmlns="http://www.w3.org/2000/svg"
   xmlns:svg="http://www.w3.org/2000/svg"
   xmlns:rdf="http://www.w3.org/1999/02/22-rdf-syntax-ns#"
   xmlns:cc="http://creativecommons.org/ns#"
   xmlns:dc="http://purl.org/dc/elements/1.1/">
  <defs
     id="defs2" />
  <sodipodi:namedview
     id="base"
     pagecolor="#ffffff"
     bordercolor="#666666"
     borderopacity="1.0"
     inkscape:pageopacity="0.0"
     inkscape:pageshadow="2"
     inkscape:zoom="0.047879412"
     inkscape:cx="-1890.1652"
     inkscape:cy="-3101.5418"
     inkscape:document-units="mm"
     inkscape:current-layer="layer1"
     inkscape:document-rotation="0"
     showgrid="false"
     inkscape:window-width="1440"
     inkscape:window-height="777"
     inkscape:window-x="0"
     inkscape:window-y="25"
     inkscape:window-maximized="0"
     inkscape:snap-intersection-paths="true"
     inkscape:object-paths="true"
     inkscape:snap-object-midpoints="false"
     inkscape:snap-bbox="true"
     inkscape:snap-nodes="true"
     inkscape:bbox-paths="true"
     inkscape:bbox-nodes="false"
     inkscape:snap-bbox-edge-midpoints="true"
     showguides="false"
     inkscape:lockguides="false"
     inkscape:guide-bbox="true"
     inkscape:snap-text-baseline="true"
     inkscape:snap-bbox-midpoints="false"
     inkscape:pagecheckerboard="1">
    <sodipodi:guide
       position="1.9534308e-07,-103.5293"
       orientation="0,-1"
       id="guide3406" />
    <sodipodi:guide
       position="1.9534308e-07,-169.67513"
       orientation="0,-1"
       id="guide3408" />
    <sodipodi:guide
       position="9.9999992,-103.52928"
       orientation="1,0"
       id="guide3410" />
    <sodipodi:guide
       position="20,-103.52928"
       orientation="1,0"
       id="guide3429" />
    <inkscape:grid
       type="xygrid"
       id="grid3459"
       originx="0"
       originy="-4.0209966e-07" />
    <sodipodi:guide
       position="-9.9999998,-103.5293"
       orientation="1,0"
       id="guide3480" />
    <sodipodi:guide
       position="0,-37.383459"
       orientation="0,1903.0251"
       id="guide851" />
    <sodipodi:guide
       position="0,-235.82096"
       orientation="0,-1903.0251"
       id="guide855" />
    <sodipodi:guide
       position="0,-235.82096"
       orientation="-750,0"
       id="guide857" />
    <sodipodi:guide
       position="-9.9999989,-202.74805"
       orientation="0,-1"
       id="guide876" />
    <sodipodi:guide
       position="22.963335,-123.46656"
       orientation="1,0"
       id="guide878" />
  </sodipodi:namedview>
  <metadata
     id="metadata5">
    <rdf:RDF>
      <cc:Work
         rdf:about="">
        <dc:format>image/svg+xml</dc:format>
        <dc:type
           rdf:resource="http://purl.org/dc/dcmitype/StillImage" />
      </cc:Work>
    </rdf:RDF>
  </metadata>
  <g
     inkscape:label="Layer 1"
     inkscape:groupmode="layer"
     id="layer1">
    <rect
       style="fill:#002664;fill-opacity:1;stroke-width:0;stroke-linecap:square;stroke-linejoin:round"
       id="rect833"
       width="10"
       height="66.145836"
       x="0"
       y="4.020996e-07" />
    <rect
       style="fill:#ffcc33;fill-opacity:1;stroke-width:0;stroke-linecap:square;stroke-linejoin:round"
       id="rect833-3"
       width="9.9999666"
       height="66.145836"
       x="0"
       y="66.145836" />
    <rect
       style="fill:#002664;fill-opacity:1;stroke-width:0;stroke-linecap:square;stroke-linejoin:round"
       id="rect833-3-8"
       width="9.9999666"
       height="66.145836"
       x="1.6820712e-06"
       y="132.29167" />
    <g
       aria-label="Foreign Affairs"
       id="text867"
       style="font-weight:bold;font-size:70.5556px;line-height:1;font-family:Vollkorn;-inkscape-font-specification:'Vollkorn, Bold';word-spacing:0px;fill:#0b479a;stroke-width:1.38545">
      <path
         d="m 38.76779,88.688309 v 19.614461 h 3.457225 q 3.810003,0 5.221115,-1.12889 1.411112,-1.12889 1.481667,-4.23334 2.046113,-0.70556 4.868337,-0.70556 -0.211667,3.45723 -0.211667,7.97279 0,5.00945 0.211667,8.32556 -2.963335,0 -4.727226,-0.56445 -0.282222,-3.24555 -1.693334,-4.37444 -1.411112,-1.12889 -5.150559,-1.12889 H 38.76779 v 7.62 q 0,3.03389 0.635001,4.72723 0.705556,1.69333 2.187224,2.46944 1.481667,0.70556 4.16278,0.91723 0.493889,1.34055 0.493889,4.30389 -3.598335,-0.21167 -11.218341,-0.21167 -8.18445,0 -12.065008,0.21167 0,-2.75167 0.423334,-4.30389 1.975557,-0.14111 2.963335,-0.70556 0.987779,-0.635 1.411112,-2.04611 0.423334,-1.41111 0.423334,-4.30389 V 95.673314 q 0,-2.89278 -0.423334,-4.233336 -0.352778,-1.411112 -1.340556,-1.975557 -0.917223,-0.564445 -2.89278,-0.776112 -0.564445,-1.693334 -0.564445,-4.303892 5.573893,0.211667 15.663344,0.211667 14.816677,0 19.685013,-0.211667 0.141112,2.963336 0.49389,6.350005 0.423333,3.316113 0.987778,5.503337 -2.116668,1.128889 -5.221115,1.128889 -0.635,-4.16278 -2.892779,-6.42056 -2.25778,-2.257779 -7.761117,-2.257779 z"
         id="path1730" />
      <path
         d="m 78.001114,132.92667 q -8.325561,0 -12.911675,-4.37445 -4.586115,-4.445 -4.586115,-12.065 0,-5.29167 2.25778,-9.17223 2.328335,-3.88056 6.350004,-5.92667 4.092225,-2.046115 9.172228,-2.046115 8.466673,0 13.052787,4.515555 4.586114,4.51556 4.586114,11.99446 0,5.15056 -2.187224,9.03111 -2.187223,3.81001 -6.279448,5.92667 -4.02167,2.11667 -9.454451,2.11667 z m 0.917223,-4.445 q 3.175002,0 4.868336,-3.03389 1.763891,-3.03389 1.763891,-7.97278 0,-4.3039 -1.12889,-7.40834 -1.058334,-3.17501 -2.963335,-4.79778 -1.834446,-1.62278 -4.02167,-1.62278 -3.245558,0 -4.938892,2.96333 -1.622779,2.96334 -1.622779,7.76112 0,6.35 2.116668,10.23056 2.187224,3.88056 5.926671,3.88056 z"
         id="path1732" />
      <path
         d="m 130.24092,101.52943 q -0.35278,2.18722 -0.49389,5.15056 -0.14111,2.89278 -0.0705,5.08 -0.98778,0.42333 -2.68112,0.635 -1.69333,0.21167 -3.175,0.21167 -0.0706,-2.75167 -0.84667,-3.88056 -0.77611,-1.12889 -2.18722,-1.12889 -1.12889,0 -2.32834,1.27 -1.12889,1.27 -1.97555,3.31611 -0.77611,1.97556 -0.77611,4.23334 v 3.66889 q 0,3.03389 0.635,4.72723 0.70555,1.69333 2.18722,2.46944 1.48167,0.70556 4.16278,0.91723 0.49389,1.34055 0.49389,4.30389 -3.66889,-0.21167 -10.86556,-0.21167 -8.04334,0 -11.9239,0.21167 0,-2.75167 0.42333,-4.30389 1.97556,-0.14111 2.96334,-0.70556 0.98778,-0.635 1.41111,-2.04611 0.42333,-1.41111 0.42333,-4.30389 v -9.73668 q 0,-2.18722 -0.35277,-3.31611 -0.35278,-1.12889 -1.41112,-1.69333 -1.05833,-0.56445 -3.38666,-0.70556 0,-2.61056 0.84666,-4.02167 3.59834,-0.0706 7.12612,-0.70556 3.52778,-0.70555 5.22111,-1.622775 2.04612,0.776115 2.04612,3.810005 0,1.41111 -0.35278,3.175 -0.28222,1.69333 -0.77611,3.59834 1.12889,-3.31612 1.76389,-4.37445 1.62277,-2.61056 3.88055,-4.16278 2.32834,-1.552226 5.00945,-1.552226 2.82223,0 5.00945,1.693336 z"
         id="path1734" />
      <path
         d="m 162.95117,124.31889 q 0.70555,0.35278 1.19944,1.41111 0.49389,1.05833 0.56445,2.11667 -5.15056,5.08 -13.75835,5.08 -8.53722,0 -12.77056,-4.58611 -4.23334,-4.58612 -4.23334,-11.99445 0,-4.9389 1.97556,-8.81945 2.04611,-3.88056 5.715,-5.99723 3.6689,-2.187225 8.60779,-2.187225 7.26723,0 10.86556,4.092225 3.59834,4.02167 3.95111,10.93612 -0.56444,2.25778 -1.76389,3.31611 -10.795,0 -18.9089,0.42334 0.635,4.445 2.96334,6.985 2.32833,2.54 6.70278,2.54 2.46945,0 4.86834,-0.84667 2.39889,-0.91722 4.02167,-2.46944 z m -12.84112,-20.60224 q -2.54,0 -4.16278,2.46945 -1.62278,2.46944 -1.76389,7.40834 h 11.28889 q 0,-4.72723 -1.41111,-7.26723 -1.34056,-2.61056 -3.95111,-2.61056 z"
         id="path1736" />
      <path
         d="m 179.37077,93.768313 q -2.54,0 -4.16278,-1.340557 -1.55223,-1.411112 -1.55223,-3.598336 0,-2.469446 1.69334,-3.880558 1.69333,-1.481668 4.30389,-1.481668 2.82222,0 4.37445,1.411113 1.62278,1.411112 1.62278,3.880558 0,2.187223 -1.76389,3.598335 -1.69334,1.411113 -4.51556,1.411113 z m -9.3839,38.735027 q 0,-2.75167 0.49389,-4.30389 2.82223,-0.14111 3.73945,-1.34056 0.98778,-1.27 0.98778,-4.79778 v -11.35945 q 0,-2.68112 -0.98778,-3.73945 -0.98778,-1.12889 -4.23334,-1.27 0,-2.54 0.77611,-4.02167 3.38667,0 7.12612,-0.70556 3.81,-0.77611 5.36223,-1.622775 2.04611,0.846665 2.04611,3.739445 v 18.97946 q 0,3.52778 0.91722,4.79778 0.91722,1.19945 3.45723,1.34056 0.49389,1.55222 0.49389,4.30389 -3.17501,-0.21167 -10.0189,-0.21167 -7.05556,0 -10.16001,0.21167 z"
         id="path1738" />
      <path
         d="m 215.31996,126.71778 q 6.77334,0.0705 10.0189,1.83444 3.31611,1.76389 3.31611,6.63223 0,3.95112 -2.61056,7.26723 -2.54,3.38667 -7.19667,5.36222 -4.65667,2.04612 -10.72445,2.04612 -7.19667,0 -10.37167,-2.32834 -3.10445,-2.25778 -3.10445,-6.42056 0,-2.46944 1.27,-4.30389 1.34056,-1.83445 3.81,-2.89278 -3.03389,-1.76389 -3.03389,-5.715 0,-4.51556 4.16278,-7.90223 -5.22111,-3.03389 -5.22111,-9.31334 0,-5.43278 3.73945,-8.53723 3.81,-3.104445 10.58334,-3.104445 3.03389,0 5.50333,0.635001 h 13.1939 q 0.70556,1.763894 0.70556,5.432784 -3.17501,-1.12889 -6.63223,-1.34056 1.48167,1.62278 2.25778,3.52778 0.77611,1.83445 0.77611,3.66889 0,4.93889 -3.95111,8.04334 -3.95112,3.10445 -11.2889,3.10445 -2.68111,0 -4.93889,-0.42334 -1.34056,1.12889 -1.34056,2.18723 0,1.19944 1.12889,1.76389 1.19945,0.49389 3.175,0.635 1.97556,0.0706 6.77334,0.14111 z m -5.08,-23.63613 q -2.25778,0 -3.45723,1.905 -1.12889,1.83445 -1.12889,5.00945 0,4.02167 1.48167,6.13834 1.55223,2.11667 4.30389,2.11667 2.11667,0 3.24556,-1.69334 1.19945,-1.76389 1.19945,-5.15056 0,-3.81 -1.48167,-6.06778 -1.48167,-2.25778 -4.16278,-2.25778 z m 0.14111,42.1217 q 4.30389,0 6.84389,-1.76389 2.61056,-1.69334 2.61056,-4.23334 0,-1.34056 -0.70556,-2.04611 -0.635,-0.70556 -2.46944,-0.98778 -1.83445,-0.28222 -5.50334,-0.35278 -3.73945,0 -6.84389,-0.42333 -0.84667,0.91722 -1.19945,1.76389 -0.28222,0.84667 -0.28222,2.04611 0,3.10445 1.69333,4.51556 1.76389,1.48167 5.85612,1.48167 z"
         id="path1740" />
      <path
         d="m 274.85677,128.19945 q 0.56444,1.34055 0.56444,4.30389 -6.13834,-0.21167 -8.74889,-0.21167 -6.8439,0 -10.0189,0.21167 0,-2.82223 0.49389,-4.30389 2.11667,0 3.10445,-1.48167 0.98777,-1.48167 0.98777,-5.08 v -7.69057 q 0,-4.30389 -1.41111,-6.06778 -1.34055,-1.83444 -4.02167,-1.83444 -1.83444,0 -3.38667,1.34055 -1.55222,1.27 -2.54,3.88056 -0.91722,2.54 -0.91722,6.13834 v 4.65667 q 0,3.52778 0.91722,4.86834 0.91722,1.27 3.10445,1.27 0.56444,1.55222 0.56444,4.30389 -3.03389,-0.21167 -9.59556,-0.21167 -7.12611,0 -10.30112,0.21167 0,-2.96334 0.56445,-4.30389 2.75167,0 3.66889,-1.27 0.98778,-1.27 0.98778,-4.86834 v -10.6539 q 0,-2.18722 -0.35278,-3.31611 -0.35278,-1.12889 -1.41111,-1.69333 -1.05834,-0.56445 -3.38667,-0.70556 0,-2.61056 0.84667,-4.02167 3.59833,-0.0706 7.12611,-0.70556 3.52778,-0.70555 5.22112,-1.622775 2.04611,0.776115 2.04611,3.810005 0,1.905 -0.70556,4.23333 0.14111,-0.35277 0.635,-1.41111 0.56445,-1.05833 1.34056,-1.905 1.62278,-1.83445 4.16278,-3.10445 2.54,-1.269997 5.64445,-1.269997 4.86834,0 8.04334,2.822227 3.24556,2.75167 3.24556,8.67834 v 10.86556 q 0,3.45722 0.77611,4.79778 0.77611,1.34056 2.75167,1.34056 z"
         id="path1742" />
      <path
         d="m 340.22103,128.19945 q 0.49389,1.69333 0.49389,4.30389 -3.24556,-0.21167 -9.66612,-0.21167 -7.12612,0 -10.30112,0.21167 0,-2.82223 0.56445,-4.30389 1.69333,-0.28223 2.46944,-0.77611 0.77611,-0.56445 0.77611,-1.55223 0,-0.91722 -0.91722,-3.10444 l -1.69333,-4.02167 q -9.45445,0 -17.35668,0.49389 l -0.91722,2.46944 q -0.77612,1.97556 -0.77612,3.24556 0,2.82222 3.38667,3.24556 0.49389,1.55222 0.49389,4.30389 -2.39889,-0.21167 -7.47889,-0.21167 -4.23334,0 -6.35001,0.21167 0,-2.61056 0.635,-4.30389 1.76389,-0.28223 2.82223,-1.69334 1.12889,-1.48167 2.82222,-5.64445 l 14.74612,-36.336131 q 0.98778,-0.211667 1.97556,-0.282223 0.98778,-0.07056 2.18722,-0.07056 l 16.15724,36.336144 q 1.48166,3.24555 2.32833,4.79778 0.91722,1.55222 1.69334,2.18722 0.77611,0.56445 1.905,0.70556 z m -19.96724,-13.33501 -3.95111,-9.17223 q -2.18723,-4.86834 -3.31611,-8.960562 -1.27001,4.233332 -3.10445,8.960562 l -3.52778,9.17223 z"
         id="path1744" />
      <path
         d="m 399.55387,83.890528 q -0.35278,3.175002 -0.35278,6.279449 0,1.905001 0.0706,2.751668 -1.12889,0.423334 -2.96334,0.635001 -1.76389,0.141111 -3.38667,0.07055 0,-3.316113 -1.12889,-5.221114 -1.12889,-1.975557 -3.24555,-1.975557 -2.18723,0 -3.10445,2.187223 -0.91722,2.116669 -0.91722,7.337783 v 4.727229 h 7.76111 q 0,3.24556 -0.70555,4.58612 -3.81001,0 -7.05556,0.91722 v 13.89945 q 0,3.03389 0.635,4.72723 0.70555,1.69333 2.18722,2.46944 1.55222,0.70556 4.23334,0.91723 0.49389,1.34055 0.49389,4.30389 -3.66889,-0.21167 -10.86557,-0.21167 -8.11389,0 -11.92389,0.21167 0,-2.75167 0.42333,-4.30389 1.97556,-0.14111 2.96334,-0.70556 0.98777,-0.635 1.41111,-2.04611 0.42333,-1.41111 0.42333,-4.30389 v -15.31057 q -3.03389,-0.77611 -6.70278,-0.77611 -2.61056,0 -4.51556,0.28222 -1.83445,0.28222 -3.66889,0.84667 v 13.89945 q 0,3.31612 0.49389,5.00945 0.56444,1.62278 1.69333,2.25778 1.12889,0.635 3.31612,0.84667 0.56444,1.27 0.56444,4.30389 -3.66889,-0.21167 -10.16001,-0.21167 -7.33778,0 -11.14778,0.21167 0,-3.0339 0.42333,-4.30389 1.97556,-0.14111 2.96334,-0.70556 0.98778,-0.635 1.41111,-2.04611 0.42333,-1.48167 0.42333,-4.30389 v -15.31057 q -3.03389,-0.70556 -5.50333,-0.70556 0,-2.89278 0.98777,-4.445 h 4.51556 v -1.834449 q 0,-4.868337 2.39889,-8.466672 2.39889,-3.598336 6.63223,-5.432782 4.30389,-1.905001 9.66612,-1.905001 3.10444,0 6.06778,0.705556 3.03389,0.705556 5.08,1.975557 2.18723,-1.905002 5.08001,-2.89278 2.96333,-1.058334 6.27945,-1.058334 2.68111,0 5.00944,0.635 2.32834,0.564445 3.73945,1.481668 z m -25.04724,14.393343 q 0,-3.245558 0.91722,-6.208893 -1.27,-2.257779 -3.31611,-3.386669 -2.04611,-1.12889 -4.65667,-1.12889 -3.95111,0 -5.92667,2.046113 -1.905,2.046112 -1.905,7.126116 v 3.951112 h 14.88723 z"
         id="path1746" />
      <path
         d="m 431.23994,127.21167 q 0,1.97556 -0.70556,3.38667 -5.715,0.21166 -10.30112,2.32833 -1.12888,-0.49389 -1.69333,-1.41111 -0.49389,-0.98778 -0.49389,-2.68111 0,-1.34056 0.28222,-2.68112 -1.05833,2.54001 -3.03389,4.09223 -2.96333,2.54 -8.18445,2.54 -4.72722,0 -7.33778,-2.04611 -2.61056,-2.04611 -2.61056,-5.85612 0,-4.16278 2.96334,-6.63222 3.03389,-2.54 7.19667,-3.66889 4.16278,-1.19945 9.59556,-1.97556 0,-3.175 -0.35278,-4.72723 -0.28222,-1.62278 -1.19944,-2.68111 -1.48167,-1.76389 -3.95112,-1.76389 -2.68111,0 -4.02166,2.25778 -1.27001,2.25778 -1.55223,5.64445 -3.95111,0 -5.78556,-0.70556 0.14111,-1.69333 0.14111,-2.68111 0,-2.75167 -0.56444,-5.78556 2.96333,-1.34056 6.77334,-2.11667 3.81,-0.77611 7.26722,-0.77611 6.91445,0 10.23057,3.175 1.55222,1.62278 2.32833,4.37445 0.77611,2.68111 0.77611,7.40834 v 6.13833 q 0,2.3989 0.28223,3.59834 0.28222,1.12889 1.12888,1.62278 0.91723,0.49389 2.75167,0.56444 z m -14.32279,-10.86556 q -4.79778,0.84666 -7.26723,2.25777 -2.39889,1.41112 -2.39889,4.37445 0,1.97556 0.91723,2.96334 0.98778,0.98778 2.46944,0.98778 1.55223,0 2.96334,-0.98778 1.48167,-0.98778 2.39889,-2.89278 0.91722,-1.97556 0.91722,-4.79778 z"
         id="path1748" />
      <path
         d="m 444.91892,93.768313 q -2.54,0 -4.16278,-1.340557 -1.55222,-1.411112 -1.55222,-3.598336 0,-2.469446 1.69334,-3.880558 1.69333,-1.481668 4.30389,-1.481668 2.82222,0 4.37444,1.411113 1.62278,1.411112 1.62278,3.880558 0,2.187223 -1.76389,3.598335 -1.69333,1.411113 -4.51556,1.411113 z m -9.38389,38.735027 q 0,-2.75167 0.49389,-4.30389 2.82222,-0.14111 3.73945,-1.34056 0.98777,-1.27 0.98777,-4.79778 v -11.35945 q 0,-2.68112 -0.98777,-3.73945 -0.98778,-1.12889 -4.23334,-1.27 0,-2.54 0.77611,-4.02167 3.38667,0 7.12612,-0.70556 3.81,-0.77611 5.36222,-1.622775 2.04612,0.846665 2.04612,3.739445 v 18.97946 q 0,3.52778 0.91722,4.79778 0.91722,1.19945 3.45722,1.34056 0.49389,1.55222 0.49389,4.30389 -3.175,-0.21167 -10.01889,-0.21167 -7.05556,0 -10.16001,0.21167 z"
         id="path1750" />
      <path
         d="m 490.32255,101.52943 q -0.35277,2.18722 -0.49388,5.15056 -0.14112,2.89278 -0.0706,5.08 -0.98778,0.42333 -2.68111,0.635 -1.69334,0.21167 -3.17501,0.21167 -0.0706,-2.75167 -0.84666,-3.88056 -0.77611,-1.12889 -2.18723,-1.12889 -1.12889,0 -2.32833,1.27 -1.12889,1.27 -1.97556,3.31611 -0.77611,1.97556 -0.77611,4.23334 v 3.66889 q 0,3.03389 0.635,4.72723 0.70556,1.69333 2.18722,2.46944 1.48167,0.70556 4.16278,0.91723 0.49389,1.34055 0.49389,4.30389 -3.66889,-0.21167 -10.86556,-0.21167 -8.04334,0 -11.9239,0.21167 0,-2.75167 0.42334,-4.30389 1.97555,-0.14111 2.96333,-0.70556 0.98778,-0.635 1.41112,-2.04611 0.42333,-1.41111 0.42333,-4.30389 v -9.73668 q 0,-2.18722 -0.35278,-3.31611 -0.35278,-1.12889 -1.41111,-1.69333 -1.05834,-0.56445 -3.38667,-0.70556 0,-2.61056 0.84667,-4.02167 3.59833,-0.0706 7.12611,-0.70556 3.52778,-0.70555 5.22112,-1.622775 2.04611,0.776115 2.04611,3.810005 0,1.41111 -0.35278,3.175 -0.28222,1.69333 -0.77611,3.59834 1.12889,-3.31612 1.76389,-4.37445 1.62278,-2.61056 3.88056,-4.16278 2.32833,-1.552226 5.00945,-1.552226 2.82222,0 5.00944,1.693336 z"
         id="path1752" />
      <path
         d="m 519.29335,109.07888 q -0.98777,0.56444 -2.39889,0.91722 -1.41111,0.35278 -2.96333,0.35278 -0.28222,-2.89278 -2.04611,-4.79778 -1.76389,-1.97556 -4.72723,-1.97556 -1.62278,0 -2.61056,0.84667 -0.98778,0.77611 -0.98778,2.18722 0,1.12889 0.49389,1.905 0.56445,0.77612 2.18723,1.76389 1.62278,0.91723 5.00945,2.25778 4.09222,1.62278 6.27944,3.10445 2.25778,1.41111 3.17501,3.175 0.98777,1.69334 0.98777,4.09223 0,4.72722 -3.95111,7.40833 -3.95111,2.61056 -10.79501,2.61056 -4.16278,0 -6.985,-0.635 -2.82222,-0.56444 -5.715,-1.83444 0.28222,-1.76389 0.28222,-4.51556 0,-2.54 -0.21167,-4.23334 0.91722,-0.56444 2.46945,-0.84667 1.55222,-0.35277 3.03389,-0.35277 0.42333,3.88055 2.25778,5.92667 1.905,1.97555 4.79778,1.97555 2.11667,0 3.38667,-0.91722 1.27,-0.98778 1.27,-2.61056 0,-1.69333 -1.34056,-2.75167 -1.34055,-1.12888 -5.43278,-2.82222 -3.66889,-1.41111 -5.85611,-2.68111 -2.11667,-1.34056 -3.24556,-3.24556 -1.12889,-1.97556 -1.12889,-4.93889 0,-4.44501 3.81,-6.77334 3.81,-2.328335 9.3839,-2.328335 3.66889,0 6.27944,0.564445 2.61056,0.49389 5.00945,1.69333 -0.0706,0.77612 -0.0706,2.32834 0,2.32833 0.35277,5.15056 z"
         id="path1754" />
    </g>
    <g
       aria-label="Esfalsa"
       id="text871"
       style="font-weight:bold;font-size:45.618px;line-height:1.25;font-family:'DM Sans';-inkscape-font-specification:'DM Sans Bold';word-spacing:0px;fill:#1790f1;stroke-width:1.14045">
      <path
         d="m 22.735245,182.26607 v -31.9326 h 20.5281 v 5.47416 H 28.756821 v 7.6182 h 13.22922 v 5.47416 h -13.22922 v 7.89192 h 14.780232 v 5.47416 z"
         style="font-family:'Space Grotesk';-inkscape-font-specification:'Space Grotesk Bold'"
         id="path1814" />
      <path
         d="m 57.618759,182.90472 q -4.424946,0 -7.253262,-1.91596 -2.828316,-1.91595 -3.42135,-5.47416 l 5.291688,-1.36854 q 0.319326,1.59663 1.049214,2.50899 0.775506,0.91236 1.870338,1.32293 1.14045,0.36494 2.463372,0.36494 2.007192,0 2.96517,-0.68427 0.957978,-0.72989 0.957978,-1.7791 0,-1.04922 -0.91236,-1.59663 -0.91236,-0.59304 -2.919552,-0.95798 l -1.277304,-0.22809 q -2.372136,-0.45618 -4.33371,-1.23169 -1.961574,-0.82112 -3.147642,-2.23528 -1.186068,-1.41416 -1.186068,-3.64944 0,-3.37573 2.463372,-5.15483 2.463372,-1.82472 6.477756,-1.82472 3.786294,0 6.295284,1.68786 2.50899,1.68787 3.284496,4.42495 l -5.337306,1.64225 q -0.364944,-1.73349 -1.505394,-2.46337 -1.094832,-0.72989 -2.73708,-0.72989 -1.642248,0 -2.50899,0.59303 -0.866742,0.54742 -0.866742,1.55101 0,1.09484 0.91236,1.64225 0.91236,0.5018 2.463372,0.77551 l 1.277304,0.22809 q 2.554608,0.45618 4.607418,1.23168 2.098428,0.72989 3.284496,2.14405 1.231686,1.36854 1.231686,3.74068 0,3.5582 -2.600226,5.51977 -2.554608,1.91596 -6.888318,1.91596 z"
         style="font-family:'Space Grotesk';-inkscape-font-specification:'Space Grotesk Bold'"
         id="path1816" />
      <path
         d="m 75.305713,182.26607 v -17.88226 h -5.747868 v -4.74427 h 5.747868 v -4.19686 q 0,-2.32651 1.36854,-3.69505 1.414158,-1.41416 3.64944,-1.41416 h 5.93034 v 4.74427 h -3.923148 q -1.277304,0 -1.277304,1.36854 v 3.19326 h 5.93034 v 4.74427 h -5.93034 v 17.88226 z"
         style="font-family:'Space Grotesk';-inkscape-font-specification:'Space Grotesk Bold'"
         id="path1818" />
      <path
         d="m 98.013499,182.90472 q -2.417754,0 -4.33371,-0.82112 -1.915956,-0.86675 -3.056406,-2.46338 -1.094832,-1.64224 -1.094832,-3.96876 0,-2.32652 1.094832,-3.87753 1.14045,-1.59663 3.102024,-2.37214 2.007192,-0.82112 4.5618,-0.82112 h 6.204043 v -1.27731 q 0,-1.59663 -1.00359,-2.60022 -1.0036,-1.04922 -3.19326,-1.04922 -2.144047,0 -3.193261,1.0036 -1.049214,0.95798 -1.36854,2.50899 l -5.291688,-1.7791 q 0.547416,-1.73349 1.733484,-3.14764 1.231686,-1.45978 3.238878,-2.32652 2.05281,-0.91236 4.972357,-0.91236 4.47057,0 7.07079,2.23528 2.60023,2.23528 2.60023,6.47776 v 8.43933 q 0,1.36854 1.2773,1.36854 h 1.82472 v 4.74427 h -3.83191 q -1.68786,0 -2.7827,-0.82113 -1.09483,-0.82112 -1.09483,-2.18966 v -0.0456 h -0.86674 q -0.18247,0.54742 -0.82112,1.45978 -0.63866,0.86674 -2.0072,1.55101 -1.36854,0.68427 -3.740671,0.68427 z m 1.003596,-4.65304 q 2.417755,0 3.923145,-1.32292 1.55101,-1.36854 1.55101,-3.60382 v -0.45618 h -5.793481 q -1.59663,0 -2.50899,0.68427 -0.91236,0.68427 -0.91236,1.91596 0,1.23168 0.957978,2.00719 0.957978,0.7755 2.782698,0.7755 z"
         style="font-family:'Space Grotesk';-inkscape-font-specification:'Space Grotesk Bold'"
         id="path1820" />
      <path
         d="m 117.36123,182.26607 v -31.9326 h 5.74787 v 31.9326 z"
         style="font-family:'Space Grotesk';-inkscape-font-specification:'Space Grotesk Bold'"
         id="path1822" />
      <path
         d="m 138.87582,182.90472 q -4.42495,0 -7.25327,-1.91596 -2.82831,-1.91595 -3.42135,-5.47416 l 5.29169,-1.36854 q 0.31933,1.59663 1.04922,2.50899 0.7755,0.91236 1.87033,1.32293 1.14045,0.36494 2.46338,0.36494 2.00719,0 2.96517,-0.68427 0.95797,-0.72989 0.95797,-1.7791 0,-1.04922 -0.91236,-1.59663 -0.91236,-0.59304 -2.91955,-0.95798 l -1.2773,-0.22809 q -2.37214,-0.45618 -4.33371,-1.23169 -1.96158,-0.82112 -3.14764,-2.23528 -1.18607,-1.41416 -1.18607,-3.64944 0,-3.37573 2.46337,-5.15483 2.46337,-1.82472 6.47776,-1.82472 3.78629,0 6.29528,1.68786 2.50899,1.68787 3.2845,4.42495 l -5.33731,1.64225 q -0.36494,-1.73349 -1.50539,-2.46337 -1.09484,-0.72989 -2.73708,-0.72989 -1.64225,0 -2.50899,0.59303 -0.86675,0.54742 -0.86675,1.55101 0,1.09484 0.91236,1.64225 0.91236,0.5018 2.46338,0.77551 l 1.2773,0.22809 q 2.55461,0.45618 4.60742,1.23168 2.09843,0.72989 3.28449,2.14405 1.23169,1.36854 1.23169,3.74068 0,3.5582 -2.60023,5.51977 -2.5546,1.91596 -6.88831,1.91596 z"
         style="font-family:'Space Grotesk';-inkscape-font-specification:'Space Grotesk Bold'"
         id="path1824" />
      <path
         d="m 160.20366,182.90472 q -2.41775,0 -4.33371,-0.82112 -1.91595,-0.86675 -3.0564,-2.46338 -1.09484,-1.64224 -1.09484,-3.96876 0,-2.32652 1.09484,-3.87753 1.14045,-1.59663 3.10202,-2.37214 2.00719,-0.82112 4.5618,-0.82112 h 6.20405 v -1.27731 q 0,-1.59663 -1.0036,-2.60022 -1.00359,-1.04922 -3.19326,-1.04922 -2.14404,0 -3.19326,1.0036 -1.04921,0.95798 -1.36854,2.50899 l -5.29169,-1.7791 q 0.54742,-1.73349 1.73349,-3.14764 1.23168,-1.45978 3.23888,-2.32652 2.05281,-0.91236 4.97236,-0.91236 4.47056,0 7.07079,2.23528 2.60022,2.23528 2.60022,6.47776 v 8.43933 q 0,1.36854 1.27731,1.36854 h 1.82472 v 4.74427 h -3.83191 q -1.68787,0 -2.7827,-0.82113 -1.09483,-0.82112 -1.09483,-2.18966 v -0.0456 h -0.86675 q -0.18247,0.54742 -0.82112,1.45978 -0.63865,0.86674 -2.00719,1.55101 -1.36854,0.68427 -3.74068,0.68427 z m 1.0036,-4.65304 q 2.41775,0 3.92315,-1.32292 1.55101,-1.36854 1.55101,-3.60382 v -0.45618 h -5.79349 q -1.59663,0 -2.50899,0.68427 -0.91236,0.68427 -0.91236,1.91596 0,1.23168 0.95798,2.00719 0.95798,0.7755 2.7827,0.7755 z"
         style="font-family:'Space Grotesk';-inkscape-font-specification:'Space Grotesk Bold'"
         id="path1826" />
    </g>
    <path
       sodipodi:type="star"
       style="fill:#ffcc33;fill-opacity:1;stroke:none;stroke-width:0;stroke-linecap:square;stroke-linejoin:round;stroke-miterlimit:4;stroke-dasharray:none"
       id="path835"
       sodipodi:sides="7"
       sodipodi:cx="47.13876"
       sodipodi:cy="27.836681"
       sodipodi:r1="27.836681"
       sodipodi:r2="19.33601"
       sodipodi:arg1="-1.5707963"
       sodipodi:arg2="-1.1219973"
       inkscape:flatsided="false"
       inkscape:rounded="0"
       inkscape:randomized="0"
       d="m 47.13876,0 8.389581,10.415539 13.374013,0.06526 -2.912378,13.053221 8.287541,10.49691 L 62.25626,39.892488 59.216642,52.916665 47.138758,47.172691 35.060876,52.916664 32.021257,39.892485 20.000002,34.030925 28.287544,23.534013 25.375166,10.480794 38.749181,10.415538 Z"
       inkscape:transform-center-x="4.1205443e-06"
       inkscape:transform-center-y="-1.3783465" />
  </g>
</svg>
