<svg xmlns="http://www.w3.org/2000/svg" xmlns:xlink="http://www.w3.org/1999/xlink" width="1971.749" height="750.002" viewBox="0 0 521.692 198.438" xmlns:v="https://vecta.io/nano"><path d="M0 0h10v66.146H0z" fill="#002664"/><path d="M0 66.146h10v66.146H0z" fill="#fc3"/><path d="M0 132.292h10v66.146H0z" fill="#002664"/><g fill="#0b479a"><path d="M38.768 88.688v19.614h3.457q3.81 0 5.221-1.129 1.411-1.129 1.482-4.233 2.046-.706 4.868-.706-.212 3.457-.212 7.973 0 5.009.212 8.326-2.963 0-4.727-.564-.282-3.246-1.693-4.374-1.411-1.129-5.151-1.129h-3.457v7.62q0 3.034.635 4.727.706 1.693 2.187 2.469 1.482.706 4.163.917.494 1.341.494 4.304-3.598-.212-11.218-.212-8.184 0-12.065.212 0-2.752.423-4.304 1.976-.141 2.963-.706.988-.635 1.411-2.046.423-1.411.423-4.304v-25.47q0-2.893-.423-4.233-.353-1.411-1.341-1.976-.917-.564-2.893-.776-.564-1.693-.564-4.304 5.574.212 15.663.212 14.817 0 19.685-.212.141 2.963.494 6.35.423 3.316.988 5.503-2.117 1.129-5.221 1.129-.635-4.163-2.893-6.421-2.258-2.258-7.761-2.258zm39.233 44.239q-8.326 0-12.912-4.374-4.586-4.445-4.586-12.065 0-5.292 2.258-9.172 2.328-3.881 6.35-5.927 4.092-2.046 9.172-2.046 8.467 0 13.053 4.516 4.586 4.516 4.586 11.994 0 5.151-2.187 9.031-2.187 3.81-6.279 5.927-4.022 2.117-9.454 2.117zm.917-4.445q3.175 0 4.868-3.034 1.764-3.034 1.764-7.973 0-4.304-1.129-7.408-1.058-3.175-2.963-4.798-1.834-1.623-4.022-1.623-3.246 0-4.939 2.963-1.623 2.963-1.623 7.761 0 6.35 2.117 10.231 2.187 3.881 5.927 3.881z"/><use xlink:href="#B"/><path d="M162.951 124.319q.706.353 1.199 1.411.494 1.058.564 2.117-5.151 5.08-13.758 5.08-8.537 0-12.771-4.586-4.233-4.586-4.233-11.994 0-4.939 1.976-8.819 2.046-3.881 5.715-5.997 3.669-2.187 8.608-2.187 7.267 0 10.866 4.092 3.598 4.022 3.951 10.936-.564 2.258-1.764 3.316-10.795 0-18.909.423.635 4.445 2.963 6.985 2.328 2.54 6.703 2.54 2.469 0 4.868-.847 2.399-.917 4.022-2.469zm-12.841-20.602q-2.54 0-4.163 2.469-1.623 2.469-1.764 7.408h11.289q0-4.727-1.411-7.267-1.341-2.611-3.951-2.611z"/><use xlink:href="#C"/><path d="M215.32 126.718q6.773.07 10.019 1.834 3.316 1.764 3.316 6.632 0 3.951-2.611 7.267-2.54 3.387-7.197 5.362-4.657 2.046-10.724 2.046-7.197 0-10.372-2.328-3.104-2.258-3.104-6.421 0-2.469 1.27-4.304 1.341-1.834 3.81-2.893-3.034-1.764-3.034-5.715 0-4.516 4.163-7.902-5.221-3.034-5.221-9.313 0-5.433 3.739-8.537 3.81-3.104 10.583-3.104 3.034 0 5.503.635h13.194q.706 1.764.706 5.433-3.175-1.129-6.632-1.341 1.482 1.623 2.258 3.528.776 1.834.776 3.669 0 4.939-3.951 8.043-3.951 3.104-11.289 3.104-2.681 0-4.939-.423-1.341 1.129-1.341 2.187 0 1.199 1.129 1.764 1.199.494 3.175.635 1.976.071 6.773.141zm-5.08-23.636q-2.258 0-3.457 1.905-1.129 1.834-1.129 5.009 0 4.022 1.482 6.138 1.552 2.117 4.304 2.117 2.117 0 3.246-1.693 1.199-1.764 1.199-5.151 0-3.81-1.482-6.068-1.482-2.258-4.163-2.258zm.141 42.122q4.304 0 6.844-1.764 2.611-1.693 2.611-4.233 0-1.341-.706-2.046-.635-.706-2.469-.988-1.834-.282-5.503-.353-3.739 0-6.844-.423-.847.917-1.199 1.764-.282.847-.282 2.046 0 3.104 1.693 4.516 1.764 1.482 5.856 1.482zm64.476-17.005q.564 1.341.564 4.304-6.138-.212-8.749-.212-6.844 0-10.019.212 0-2.822.494-4.304 2.117 0 3.104-1.482.988-1.482.988-5.08v-7.691q0-4.304-1.411-6.068-1.341-1.834-4.022-1.834-1.834 0-3.387 1.341-1.552 1.27-2.54 3.881-.917 2.54-.917 6.138v4.657q0 3.528.917 4.868.917 1.27 3.104 1.27.564 1.552.564 4.304-3.034-.212-9.596-.212-7.126 0-10.301.212 0-2.963.564-4.304 2.752 0 3.669-1.27.988-1.27.988-4.868v-10.654q0-2.187-.353-3.316-.353-1.129-1.411-1.693-1.058-.564-3.387-.706 0-2.611.847-4.022 3.598-.071 7.126-.706 3.528-.706 5.221-1.623 2.046.776 2.046 3.81 0 1.905-.706 4.233.141-.353.635-1.411.564-1.058 1.341-1.905 1.623-1.834 4.163-3.104 2.54-1.27 5.644-1.27 4.868 0 8.043 2.822 3.246 2.752 3.246 8.678v10.866q0 3.457.776 4.798.776 1.341 2.752 1.341zm65.364 0q.494 1.693.494 4.304-3.246-.212-9.666-.212-7.126 0-10.301.212 0-2.822.564-4.304 1.693-.282 2.469-.776.776-.564.776-1.552 0-.917-.917-3.104l-1.693-4.022q-9.454 0-17.357.494l-.917 2.469q-.776 1.976-.776 3.246 0 2.822 3.387 3.246.494 1.552.494 4.304-2.399-.212-7.479-.212-4.233 0-6.35.212 0-2.611.635-4.304 1.764-.282 2.822-1.693 1.129-1.482 2.822-5.644l14.746-36.336q.988-.212 1.976-.282.988-.071 2.187-.071l16.157 36.336q1.482 3.246 2.328 4.798.917 1.552 1.693 2.187.776.564 1.905.706zm-19.967-13.335l-3.951-9.172q-2.187-4.868-3.316-8.961-1.27 4.233-3.104 8.961l-3.528 9.172zm79.3-30.973q-.353 3.175-.353 6.279 0 1.905.071 2.752-1.129.423-2.963.635-1.764.141-3.387.071 0-3.316-1.129-5.221-1.129-1.976-3.246-1.976-2.187 0-3.104 2.187-.917 2.117-.917 7.338v4.727h7.761q0 3.246-.706 4.586-3.81 0-7.056.917v13.899q0 3.034.635 4.727.706 1.693 2.187 2.469 1.552.706 4.233.917.494 1.341.494 4.304-3.669-.212-10.866-.212-8.114 0-11.924.212 0-2.752.423-4.304 1.976-.141 2.963-.706.988-.635 1.411-2.046.423-1.411.423-4.304v-15.311q-3.034-.776-6.703-.776-2.611 0-4.516.282-1.834.282-3.669.847v13.899q0 3.316.494 5.009.564 1.623 1.693 2.258 1.129.635 3.316.847.564 1.27.564 4.304-3.669-.212-10.16-.212-7.338 0-11.148.212 0-3.034.423-4.304 1.976-.141 2.963-.706.988-.635 1.411-2.046.423-1.482.423-4.304V105.83q-3.034-.706-5.503-.706 0-2.893.988-4.445h4.516v-1.834q0-4.868 2.399-8.467 2.399-3.598 6.632-5.433 4.304-1.905 9.666-1.905 3.104 0 6.068.706 3.034.706 5.08 1.976 2.187-1.905 5.08-2.893 2.963-1.058 6.279-1.058 2.681 0 5.009.635 2.328.564 3.739 1.482zm-25.047 14.393q0-3.246.917-6.209-1.27-2.258-3.316-3.387-2.046-1.129-4.657-1.129-3.951 0-5.927 2.046-1.905 2.046-1.905 7.126v3.951h14.887zm56.733 28.928q0 1.976-.706 3.387-5.715.212-10.301 2.328-1.129-.494-1.693-1.411-.494-.988-.494-2.681 0-1.341.282-2.681-1.058 2.54-3.034 4.092-2.963 2.54-8.184 2.54-4.727 0-7.338-2.046-2.611-2.046-2.611-5.856 0-4.163 2.963-6.632 3.034-2.54 7.197-3.669 4.163-1.199 9.596-1.976 0-3.175-.353-4.727-.282-1.623-1.199-2.681-1.482-1.764-3.951-1.764-2.681 0-4.022 2.258-1.27 2.258-1.552 5.644-3.951 0-5.786-.706.141-1.693.141-2.681 0-2.752-.564-5.786 2.963-1.341 6.773-2.117 3.81-.776 7.267-.776 6.914 0 10.231 3.175 1.552 1.623 2.328 4.374.776 2.681.776 7.408v6.138q0 2.399.282 3.598.282 1.129 1.129 1.623.917.494 2.752.564zm-14.323-10.866q-4.798.847-7.267 2.258-2.399 1.411-2.399 4.374 0 1.976.917 2.963.988.988 2.469.988 1.552 0 2.963-.988 1.482-.988 2.399-2.893.917-1.976.917-4.798z"/><use xlink:href="#C" x="265.548"/><use xlink:href="#B" x="360.082"/><path d="M519.293 109.079q-.988.564-2.399.917-1.411.353-2.963.353-.282-2.893-2.046-4.798-1.764-1.976-4.727-1.976-1.623 0-2.611.847-.988.776-.988 2.187 0 1.129.494 1.905.564.776 2.187 1.764 1.623.917 5.009 2.258 4.092 1.623 6.279 3.104 2.258 1.411 3.175 3.175.988 1.693.988 4.092 0 4.727-3.951 7.408-3.951 2.611-10.795 2.611-4.163 0-6.985-.635-2.822-.564-5.715-1.834.282-1.764.282-4.516 0-2.54-.212-4.233.917-.564 2.469-.847 1.552-.353 3.034-.353.423 3.881 2.258 5.927 1.905 1.976 4.798 1.976 2.117 0 3.387-.917 1.27-.988 1.27-2.611 0-1.693-1.341-2.752-1.341-1.129-5.433-2.822-3.669-1.411-5.856-2.681-2.117-1.341-3.246-3.246-1.129-1.976-1.129-4.939 0-4.445 3.81-6.773 3.81-2.328 9.384-2.328 3.669 0 6.279.564 2.611.494 5.009 1.693-.071.776-.071 2.328 0 2.328.353 5.151z"/></g><g fill="#1790f1"><path d="M22.735 182.266v-31.933h20.528v5.474H28.757v7.618h13.229v5.474H28.757v7.892h14.78v5.474zm34.884.639q-4.425 0-7.253-1.916-2.828-1.916-3.421-5.474l5.292-1.369q.319 1.597 1.049 2.509.776.912 1.87 1.323 1.14.365 2.463.365 2.007 0 2.965-.684.958-.73.958-1.779 0-1.049-.912-1.597-.912-.593-2.92-.958l-1.277-.228q-2.372-.456-4.334-1.232-1.962-.821-3.148-2.235-1.186-1.414-1.186-3.649 0-3.376 2.463-5.155 2.463-1.825 6.478-1.825 3.786 0 6.295 1.688 2.509 1.688 3.284 4.425l-5.337 1.642q-.365-1.733-1.505-2.463-1.095-.73-2.737-.73-1.642 0-2.509.593-.867.547-.867 1.551 0 1.095.912 1.642.912.502 2.463.776l1.277.228q2.555.456 4.607 1.232 2.098.73 3.284 2.144 1.232 1.369 1.232 3.741 0 3.558-2.6 5.52-2.555 1.916-6.888 1.916zm17.687-.639v-17.882h-5.748v-4.744h5.748v-4.197q0-2.327 1.369-3.695 1.414-1.414 3.649-1.414h5.93v4.744h-3.923q-1.277 0-1.277 1.369v3.193h5.93v4.744h-5.93v17.882z"/><use xlink:href="#D"/><path d="M117.361 182.266v-31.933h5.748v31.933zm21.515.639q-4.425 0-7.253-1.916-2.828-1.916-3.421-5.474l5.292-1.369q.319 1.597 1.049 2.509.775.912 1.87 1.323 1.14.365 2.463.365 2.007 0 2.965-.684.958-.73.958-1.779 0-1.049-.912-1.597-.912-.593-2.92-.958l-1.277-.228q-2.372-.456-4.334-1.232-1.962-.821-3.148-2.235-1.186-1.414-1.186-3.649 0-3.376 2.463-5.155 2.463-1.825 6.478-1.825 3.786 0 6.295 1.688 2.509 1.688 3.285 4.425l-5.337 1.642q-.365-1.733-1.505-2.463-1.095-.73-2.737-.73-1.642 0-2.509.593-.867.547-.867 1.551 0 1.095.912 1.642.912.502 2.463.776l1.277.228q2.555.456 4.607 1.232 2.098.73 3.284 2.144 1.232 1.369 1.232 3.741 0 3.558-2.6 5.52-2.555 1.916-6.888 1.916z"/><use xlink:href="#D" x="62.191"/></g><path d="M47.139 0l8.39 10.416 13.374.065-2.912 13.053 8.288 10.497-12.021 5.862-3.04 13.024-12.078-5.744-12.078 5.744-3.04-13.024L20 34.031l8.288-10.497-2.912-13.053 13.374-.065z" fill="#fc3"/><defs ><path id="B" d="M130.241 101.529q-.353 2.187-.494 5.151-.141 2.893-.071 5.08-.988.423-2.681.635-1.693.212-3.175.212-.071-2.752-.847-3.881-.776-1.129-2.187-1.129-1.129 0-2.328 1.27-1.129 1.27-1.976 3.316-.776 1.976-.776 4.233v3.669q0 3.034.635 4.727.706 1.693 2.187 2.469 1.482.706 4.163.917.494 1.341.494 4.304-3.669-.212-10.866-.212-8.043 0-11.924.212 0-2.752.423-4.304 1.976-.141 2.963-.706.988-.635 1.411-2.046.423-1.411.423-4.304v-9.737q0-2.187-.353-3.316-.353-1.129-1.411-1.693-1.058-.564-3.387-.706 0-2.611.847-4.022 3.598-.071 7.126-.706 3.528-.706 5.221-1.623 2.046.776 2.046 3.81 0 1.411-.353 3.175-.282 1.693-.776 3.598 1.129-3.316 1.764-4.374 1.623-2.611 3.881-4.163 2.328-1.552 5.009-1.552 2.822 0 5.009 1.693z"/><path id="C" d="M179.371 93.768q-2.54 0-4.163-1.341-1.552-1.411-1.552-3.598 0-2.469 1.693-3.881 1.693-1.482 4.304-1.482 2.822 0 4.374 1.411 1.623 1.411 1.623 3.881 0 2.187-1.764 3.598-1.693 1.411-4.516 1.411zm-9.384 38.735q0-2.752.494-4.304 2.822-.141 3.739-1.341.988-1.27.988-4.798v-11.359q0-2.681-.988-3.739-.988-1.129-4.233-1.27 0-2.54.776-4.022 3.387 0 7.126-.706 3.81-.776 5.362-1.623 2.046.847 2.046 3.739v18.979q0 3.528.917 4.798.917 1.199 3.457 1.341.494 1.552.494 4.304-3.175-.212-10.019-.212-7.056 0-10.16.212z"/><path id="D" d="M98.013 182.905q-2.418 0-4.334-.821-1.916-.867-3.056-2.463-1.095-1.642-1.095-3.969 0-2.327 1.095-3.878 1.14-1.597 3.102-2.372 2.007-.821 4.562-.821h6.204v-1.277q0-1.597-1.004-2.6-1.004-1.049-3.193-1.049-2.144 0-3.193 1.004-1.049.958-1.369 2.509l-5.292-1.779q.547-1.733 1.733-3.148 1.232-1.46 3.239-2.327 2.053-.912 4.972-.912 4.471 0 7.071 2.235 2.6 2.235 2.6 6.478v8.439q0 1.369 1.277 1.369h1.825v4.744h-3.832q-1.688 0-2.783-.821-1.095-.821-1.095-2.19v-.046h-.867q-.182.547-.821 1.46-.639.867-2.007 1.551-1.369.684-3.741.684zm1.004-4.653q2.418 0 3.923-1.323 1.551-1.369 1.551-3.604v-.456h-5.793q-1.597 0-2.509.684-.912.684-.912 1.916 0 1.232.958 2.007.958.775 2.783.775z"/></defs></svg>